<mxfile host="Electron" modified="2024-08-07T14:51:27.658Z" agent="Mozilla/5.0 (Windows NT 10.0; Win64; x64) AppleWebKit/537.36 (KHTML, like Gecko) draw.io/23.1.5 Chrome/120.0.6099.109 Electron/28.1.0 Safari/537.36" etag="JDML6Xac8CXRaO5EepcT" version="23.1.5" type="device">
  <diagram name="Page-1" id="euz3AdFY_BNJe_ewoR4f">
    <mxGraphModel dx="819" dy="478" grid="1" gridSize="10" guides="1" tooltips="1" connect="1" arrows="1" fold="1" page="1" pageScale="1" pageWidth="850" pageHeight="1100" math="0" shadow="0">
      <root>
        <mxCell id="0" />
        <mxCell id="1" parent="0" />
        <mxCell id="aaNRTcqZyJRn-S_J6lSZ-1" value="&lt;p style=&quot;margin: 4px 0px 0px; text-align: center;&quot;&gt;&lt;b style=&quot;&quot;&gt;&lt;u&gt;SkellyCam&lt;/u&gt;&lt;/b&gt;&lt;/p&gt;&lt;hr&gt;&lt;p style=&quot;margin: 0px 0px 0px 8px;&quot;&gt;&lt;span style=&quot;background-color: initial;&quot;&gt;&lt;b&gt;JOB:&amp;nbsp;&lt;/b&gt;Handle cameras/videos&lt;/span&gt;&lt;br&gt;&lt;/p&gt;&lt;hr&gt;&lt;h4 style=&quot;margin:0px;margin-left:8px;&quot;&gt;&lt;br&gt;&lt;/h4&gt;&lt;div&gt;&lt;br&gt;&lt;/div&gt;&lt;div&gt;&lt;br&gt;&lt;/div&gt;&lt;div&gt;&lt;br&gt;&lt;/div&gt;&lt;div&gt;&lt;br&gt;&lt;/div&gt;&lt;div&gt;&lt;br&gt;&lt;/div&gt;" style="verticalAlign=top;align=left;overflow=fill;html=1;whiteSpace=wrap;" vertex="1" parent="1">
          <mxGeometry x="90" y="315" width="96.73" height="79.86" as="geometry" />
        </mxCell>
        <mxCell id="aaNRTcqZyJRn-S_J6lSZ-4" value="&lt;p style=&quot;margin: 4px 0px 0px; text-align: center;&quot;&gt;&lt;b style=&quot;&quot;&gt;&lt;u&gt;SkellyTracker&lt;/u&gt;&lt;/b&gt;&lt;/p&gt;&lt;hr&gt;&lt;p style=&quot;margin: 0px 0px 0px 8px;&quot;&gt;&lt;span style=&quot;background-color: initial;&quot;&gt;&lt;b&gt;JOB:&amp;nbsp;&lt;/b&gt;Image analysis &amp;amp; computer vision&lt;/span&gt;&lt;/p&gt;&lt;div&gt;&lt;br&gt;&lt;/div&gt;&lt;div&gt;&lt;br&gt;&lt;/div&gt;&lt;div&gt;&lt;br&gt;&lt;/div&gt;" style="verticalAlign=top;align=left;overflow=fill;html=1;whiteSpace=wrap;" vertex="1" parent="1">
          <mxGeometry x="280" y="310" width="96.73" height="89.86" as="geometry" />
        </mxCell>
        <mxCell id="aaNRTcqZyJRn-S_J6lSZ-5" style="edgeStyle=orthogonalEdgeStyle;rounded=0;orthogonalLoop=1;jettySize=auto;html=1;exitX=1;exitY=0.5;exitDx=0;exitDy=0;entryX=0;entryY=0.5;entryDx=0;entryDy=0;" edge="1" parent="1" source="aaNRTcqZyJRn-S_J6lSZ-1" target="aaNRTcqZyJRn-S_J6lSZ-4">
          <mxGeometry relative="1" as="geometry" />
        </mxCell>
        <mxCell id="aaNRTcqZyJRn-S_J6lSZ-7" value="&lt;p style=&quot;line-height: 50%;&quot;&gt;MultiFrames&lt;/p&gt;&lt;p style=&quot;line-height: 50%;&quot;&gt;&lt;br&gt;&lt;font style=&quot;font-size: 6px;&quot;&gt;(one image per camera,&lt;br&gt;&amp;nbsp;plus timestamps &lt;br&gt;and metadata&lt;/font&gt;&lt;br&gt;&lt;/p&gt;" style="edgeLabel;html=1;align=center;verticalAlign=middle;resizable=0;points=[];" vertex="1" connectable="0" parent="aaNRTcqZyJRn-S_J6lSZ-5">
          <mxGeometry x="-0.0043" relative="1" as="geometry">
            <mxPoint y="20" as="offset" />
          </mxGeometry>
        </mxCell>
        <mxCell id="aaNRTcqZyJRn-S_J6lSZ-13" style="edgeStyle=orthogonalEdgeStyle;rounded=0;orthogonalLoop=1;jettySize=auto;html=1;" edge="1" parent="1" target="aaNRTcqZyJRn-S_J6lSZ-15">
          <mxGeometry relative="1" as="geometry">
            <mxPoint x="522.2949999999996" y="315" as="targetPoint" />
            <mxPoint x="516.210923942249" y="203.6046511627907" as="sourcePoint" />
            <Array as="points">
              <mxPoint x="516" y="260" />
              <mxPoint x="516" y="260" />
            </Array>
          </mxGeometry>
        </mxCell>
        <mxCell id="aaNRTcqZyJRn-S_J6lSZ-14" value="Camera Calibration:&lt;br&gt;- lens intrinsics (pinhole undistortion)&lt;br&gt;- camera extrinsics (6 DoF position)" style="edgeLabel;html=1;align=center;verticalAlign=middle;resizable=0;points=[];" vertex="1" connectable="0" parent="aaNRTcqZyJRn-S_J6lSZ-13">
          <mxGeometry x="0.0068" y="2" relative="1" as="geometry">
            <mxPoint x="3" y="-3" as="offset" />
          </mxGeometry>
        </mxCell>
        <mxCell id="aaNRTcqZyJRn-S_J6lSZ-11" value="&lt;p style=&quot;margin: 4px 0px 0px; text-align: center;&quot;&gt;&lt;/p&gt;&lt;p style=&quot;text-align: center; margin: 0px 0px 0px 8px;&quot;&gt;&lt;span style=&quot;background-color: initial;&quot;&gt;&lt;b&gt;&lt;u&gt;SkellyCalibrate&lt;/u&gt;&lt;/b&gt;&lt;/span&gt;&lt;/p&gt;&lt;hr&gt;&lt;div&gt;&lt;b&gt;JOB: Calibrate cameras, create capture volume&lt;/b&gt;&lt;/div&gt;&lt;div&gt;&lt;br&gt;&lt;/div&gt;" style="verticalAlign=top;align=left;overflow=fill;html=1;whiteSpace=wrap;" vertex="1" parent="1">
          <mxGeometry x="470.89" y="110" width="118.51" height="96.98" as="geometry" />
        </mxCell>
        <mxCell id="aaNRTcqZyJRn-S_J6lSZ-22" style="edgeStyle=orthogonalEdgeStyle;rounded=0;orthogonalLoop=1;jettySize=auto;html=1;" edge="1" parent="1" source="aaNRTcqZyJRn-S_J6lSZ-15">
          <mxGeometry relative="1" as="geometry">
            <mxPoint x="681.511840361122" y="317.279534883721" as="targetPoint" />
            <Array as="points">
              <mxPoint x="627.1285780818973" y="317.5348837209302" />
              <mxPoint x="627.1285780818973" y="317.5348837209302" />
            </Array>
          </mxGeometry>
        </mxCell>
        <mxCell id="aaNRTcqZyJRn-S_J6lSZ-27" style="edgeStyle=orthogonalEdgeStyle;rounded=0;orthogonalLoop=1;jettySize=auto;html=1;entryX=0.5;entryY=0;entryDx=0;entryDy=0;" edge="1" parent="1" target="aaNRTcqZyJRn-S_J6lSZ-21">
          <mxGeometry relative="1" as="geometry">
            <mxPoint x="627.1285780818973" y="322.5581395348837" as="sourcePoint" />
            <Array as="points">
              <mxPoint x="627.1285780818973" y="347.6744186046512" />
              <mxPoint x="627.1285780818973" y="347.6744186046512" />
            </Array>
          </mxGeometry>
        </mxCell>
        <mxCell id="aaNRTcqZyJRn-S_J6lSZ-15" value="&lt;p style=&quot;margin: 4px 0px 0px; text-align: center;&quot;&gt;&lt;/p&gt;&lt;p style=&quot;margin: 0px 0px 0px 8px;&quot;&gt;&lt;span style=&quot;background-color: initial;&quot;&gt;&lt;b&gt;&lt;u&gt;SkellyForge&lt;/u&gt;&lt;/b&gt;&lt;/span&gt;&lt;/p&gt;&lt;p style=&quot;margin: 0px 0px 0px 8px;&quot;&gt;&lt;span style=&quot;background-color: initial;&quot;&gt;&lt;b&gt;&lt;br&gt;&lt;/b&gt;&lt;/span&gt;&lt;/p&gt;&lt;p style=&quot;margin: 0px 0px 0px 8px; font-size: 11px;&quot;&gt;&lt;span style=&quot;background-color: initial;&quot;&gt;&lt;font style=&quot;font-size: 11px;&quot;&gt;&lt;b style=&quot;&quot;&gt;JOB: &lt;/b&gt;Create 3d data (clean, post-process, create &#39;skeleton&#39; data model)&lt;/font&gt;&lt;/span&gt;&lt;/p&gt;&lt;p style=&quot;margin: 0px 0px 0px 8px; font-size: 11px;&quot;&gt;&lt;br&gt;&lt;/p&gt;&lt;div&gt;&lt;br&gt;&lt;/div&gt;&lt;div&gt;&lt;br&gt;&lt;/div&gt;&lt;div&gt;&lt;br&gt;&lt;/div&gt;" style="verticalAlign=top;align=left;overflow=fill;html=1;whiteSpace=wrap;" vertex="1" parent="1">
          <mxGeometry x="470.89" y="300" width="96.73" height="109.86" as="geometry" />
        </mxCell>
        <mxCell id="aaNRTcqZyJRn-S_J6lSZ-16" style="edgeStyle=orthogonalEdgeStyle;rounded=0;orthogonalLoop=1;jettySize=auto;html=1;entryX=0;entryY=0.5;entryDx=0;entryDy=0;" edge="1" parent="1">
          <mxGeometry relative="1" as="geometry">
            <mxPoint x="376.73" y="354.8325287356322" as="sourcePoint" />
            <mxPoint x="470.89" y="354.81999999999994" as="targetPoint" />
            <Array as="points">
              <mxPoint x="424" y="354.89" />
              <mxPoint x="424" y="354.89" />
            </Array>
          </mxGeometry>
        </mxCell>
        <mxCell id="aaNRTcqZyJRn-S_J6lSZ-34" value="2D data&lt;br&gt;(e.g. charuco,&lt;br&gt;mediapipe, etc)" style="edgeLabel;html=1;align=center;verticalAlign=middle;resizable=0;points=[];" vertex="1" connectable="0" parent="aaNRTcqZyJRn-S_J6lSZ-16">
          <mxGeometry x="-0.0728" y="-1" relative="1" as="geometry">
            <mxPoint y="-1" as="offset" />
          </mxGeometry>
        </mxCell>
        <mxCell id="aaNRTcqZyJRn-S_J6lSZ-21" value="&lt;p style=&quot;margin: 4px 0px 0px; text-align: center;&quot;&gt;&lt;/p&gt;&lt;p style=&quot;margin: 0px 0px 0px 8px;&quot;&gt;&lt;b&gt;&lt;u&gt;SkellyBlender&lt;/u&gt;&lt;/b&gt;&lt;/p&gt;&lt;p style=&quot;margin: 0px 0px 0px 8px;&quot;&gt;&lt;b&gt;&lt;u&gt;&lt;br&gt;&lt;/u&gt;&lt;/b&gt;&lt;/p&gt;&lt;p style=&quot;margin: 0px 0px 0px 8px;&quot;&gt;&lt;span style=&quot;background-color: initial;&quot;&gt;&lt;b&gt;JOB: &lt;/b&gt;Produce `.blend` scene, output animation filetypes (`.dae`, `.fbx`, `.bvh`, `.gltf`, etc)&lt;/span&gt;&lt;/p&gt;&lt;p style=&quot;margin: 0px 0px 0px 8px;&quot;&gt;&lt;br&gt;&lt;/p&gt;&lt;div&gt;&lt;br&gt;&lt;/div&gt;&lt;div&gt;&lt;br&gt;&lt;/div&gt;&lt;div&gt;&lt;br&gt;&lt;/div&gt;" style="verticalAlign=top;align=left;overflow=fill;html=1;whiteSpace=wrap;" vertex="1" parent="1">
          <mxGeometry x="576.54" y="430" width="96.73" height="120" as="geometry" />
        </mxCell>
        <mxCell id="aaNRTcqZyJRn-S_J6lSZ-24" value="&lt;p style=&quot;margin: 4px 0px 0px; text-align: center;&quot;&gt;&lt;/p&gt;&lt;p style=&quot;margin: 0px 0px 0px 8px;&quot;&gt;&lt;b&gt;&lt;u&gt;SkellyMetrics&lt;/u&gt;&lt;/b&gt;&lt;/p&gt;&lt;p style=&quot;margin: 0px 0px 0px 8px;&quot;&gt;&lt;b&gt;&lt;u&gt;&lt;br&gt;&lt;/u&gt;&lt;/b&gt;&lt;/p&gt;&lt;p style=&quot;margin: 0px 0px 0px 8px;&quot;&gt;&lt;span style=&quot;background-color: initial;&quot;&gt;&lt;b&gt;JOB: &lt;/b&gt;Analysis, Stats, Static Reports&lt;/span&gt;&lt;/p&gt;&lt;p style=&quot;margin: 0px 0px 0px 8px;&quot;&gt;&lt;br&gt;&lt;/p&gt;&lt;div&gt;&lt;br&gt;&lt;/div&gt;&lt;div&gt;&lt;br&gt;&lt;/div&gt;&lt;div&gt;&lt;br&gt;&lt;/div&gt;" style="verticalAlign=top;align=left;overflow=fill;html=1;whiteSpace=wrap;" vertex="1" parent="1">
          <mxGeometry x="665.0320639128721" y="138.37209302325581" width="96.7280478630029" height="94.27813953488372" as="geometry" />
        </mxCell>
        <mxCell id="aaNRTcqZyJRn-S_J6lSZ-23" style="edgeStyle=orthogonalEdgeStyle;rounded=0;orthogonalLoop=1;jettySize=auto;html=1;entryX=0;entryY=0.444;entryDx=0;entryDy=0;entryPerimeter=0;" edge="1" parent="1" source="aaNRTcqZyJRn-S_J6lSZ-15" target="aaNRTcqZyJRn-S_J6lSZ-24">
          <mxGeometry relative="1" as="geometry">
            <mxPoint x="632.0725110163722" y="180.2325581395349" as="targetPoint" />
            <Array as="points">
              <mxPoint x="623.8326227922473" y="317.5348837209302" />
              <mxPoint x="623.8326227922473" y="180.2325581395349" />
            </Array>
          </mxGeometry>
        </mxCell>
        <mxCell id="aaNRTcqZyJRn-S_J6lSZ-26" value="Skel/Rec data" style="edgeLabel;html=1;align=center;verticalAlign=middle;resizable=0;points=[];" vertex="1" connectable="0" parent="aaNRTcqZyJRn-S_J6lSZ-23">
          <mxGeometry x="-0.5134" y="1" relative="1" as="geometry">
            <mxPoint x="2" y="3" as="offset" />
          </mxGeometry>
        </mxCell>
        <mxCell id="aaNRTcqZyJRn-S_J6lSZ-31" value="&lt;p style=&quot;margin: 4px 0px 0px; text-align: center;&quot;&gt;&lt;/p&gt;&lt;p style=&quot;margin: 0px 0px 0px 8px;&quot;&gt;&lt;b&gt;&lt;u&gt;SkellyViewer&lt;/u&gt;&lt;/b&gt;&lt;/p&gt;&lt;p style=&quot;margin: 0px 0px 0px 8px;&quot;&gt;&lt;span style=&quot;background-color: initial;&quot;&gt;&lt;b&gt;JOB: &lt;/b&gt;Visualize 3D, 2d, Timeseries, and images&lt;/span&gt;&lt;/p&gt;&lt;div&gt;&lt;br&gt;&lt;/div&gt;&lt;div&gt;&lt;br&gt;&lt;/div&gt;&lt;div&gt;&lt;br&gt;&lt;/div&gt;" style="verticalAlign=top;align=left;overflow=fill;html=1;whiteSpace=wrap;" vertex="1" parent="1">
          <mxGeometry x="673.2719521369971" y="272.3255813953489" width="96.7280478630029" height="94.27813953488372" as="geometry" />
        </mxCell>
        <mxCell id="aaNRTcqZyJRn-S_J6lSZ-35" style="edgeStyle=orthogonalEdgeStyle;rounded=0;orthogonalLoop=1;jettySize=auto;html=1;entryX=0.008;entryY=0.577;entryDx=0;entryDy=0;entryPerimeter=0;" edge="1" parent="1" target="aaNRTcqZyJRn-S_J6lSZ-11">
          <mxGeometry relative="1" as="geometry">
            <mxPoint x="420" y="340" as="sourcePoint" />
            <Array as="points">
              <mxPoint x="420" y="166" />
            </Array>
          </mxGeometry>
        </mxCell>
      </root>
    </mxGraphModel>
  </diagram>
</mxfile>
